<?xml version="1.0" standalone="no"?>
<!DOCTYPE svg PUBLIC "-//W3C//DTD SVG 20010904//EN"
 "http://www.w3.org/TR/2001/REC-SVG-20010904/DTD/svg10.dtd">
<svg version="1.0" xmlns="http://www.w3.org/2000/svg"
 width="512.000000pt" height="512.000000pt" viewBox="0 0 512.000000 512.000000"
 preserveAspectRatio="xMidYMid meet">
<metadata>
Created by potrace 1.14, written by Peter Selinger 2001-2017
</metadata>
<g transform="translate(0.000000,512.000000) scale(0.100000,-0.100000)"
fill="#000000" stroke="none">
<path d="M2388 4735 c-1 -1 -34 -5 -73 -9 -112 -9 -312 -45 -415 -73 -185 -50
-436 -150 -558 -222 -29 -17 -55 -31 -58 -31 -3 0 -54 -32 -114 -72 -119 -78
-136 -101 -125 -166 6 -37 4 -40 -39 -76 -25 -20 -51 -42 -59 -49 -53 -49 -52
-49 -84 -30 -45 25 -103 6 -129 -42 -18 -33 -18 -38 -3 -80 16 -44 16 -44 -10
-69 -19 -18 -30 -23 -41 -16 -20 13 -67 13 -90 0 -66 -35 -293 -399 -385 -615
-47 -112 -118 -329 -131 -401 -3 -15 -7 -31 -9 -34 -2 -4 -6 -20 -9 -36 -3
-16 -12 -69 -20 -119 -9 -49 -19 -126 -23 -170 -14 -147 -7 -496 11 -591 3
-12 7 -39 11 -60 11 -75 16 -99 25 -134 5 -19 11 -46 14 -60 34 -178 194 -572
286 -705 159 -231 473 -265 677 -73 84 81 129 179 137 302 5 87 -9 139 -84
292 -81 168 -123 281 -155 424 -84 370 -29 788 148 1125 215 412 604 724 1049
841 282 74 614 70 892 -11 123 -36 338 -127 366 -155 3 -3 18 -12 35 -20 16
-8 72 -47 125 -86 427 -319 673 -806 674 -1334 0 -107 -16 -286 -27 -296 -4
-4 -137 42 -227 79 -14 6 -29 11 -35 13 -5 1 -136 50 -290 109 -154 58 -324
123 -377 143 -98 37 -118 54 -118 101 0 55 -83 203 -158 280 -139 143 -367
210 -562 166 -136 -31 -282 -126 -364 -236 -174 -236 -149 -575 59 -785 125
-126 273 -186 452 -183 156 3 287 57 406 169 l63 58 79 -13 c44 -7 166 -27
272 -45 105 -17 201 -33 211 -35 11 -2 42 -7 69 -11 26 -3 57 -8 68 -10 10 -2
35 -6 55 -9 20 -3 47 -8 60 -10 14 -3 72 -12 130 -21 152 -22 143 -16 120 -74
-11 -27 -48 -108 -84 -180 -38 -78 -67 -151 -72 -183 -37 -243 96 -454 326
-516 150 -41 324 11 432 128 52 55 136 200 181 310 10 24 26 62 36 85 45 98
124 370 146 495 34 200 39 262 39 471 0 148 -10 335 -19 349 -1 4 -6 29 -9 56
-4 28 -9 59 -11 70 -3 11 -7 31 -9 45 -15 92 -94 345 -147 470 -83 197 -236
453 -374 625 -283 354 -699 647 -1136 800 -120 42 -191 62 -277 79 -13 3 -31
7 -40 10 -9 3 -34 7 -56 11 -21 3 -41 7 -45 9 -3 2 -33 6 -66 10 -33 3 -71 9
-85 12 -26 6 -446 15 -452 9z"/>
<path d="M1785 3550 c-88 -35 -78 -164 14 -188 89 -22 151 68 104 149 -10 16
-25 32 -35 35 -35 11 -63 12 -83 4z"/>
<path d="M3264 3549 c-20 -6 -37 -21 -49 -43 -47 -86 44 -182 129 -136 36 19
58 64 51 104 -12 62 -66 92 -131 75z"/>
<path d="M1055 2273 c-82 -20 -96 -141 -21 -177 51 -24 83 -20 117 13 51 51
33 137 -33 160 -17 6 -34 10 -37 10 -3 -1 -15 -4 -26 -6z"/>
<path d="M3995 2266 c-27 -12 -45 -35 -58 -77 -13 -43 48 -109 102 -109 84 0
129 112 67 168 -29 27 -75 34 -111 18z"/>
<path d="M1945 1192 c-12 -2 -34 -13 -50 -26 l-30 -24 -3 -189 c-3 -204 1
-232 44 -260 26 -17 69 -18 643 -18 342 -1 628 3 644 8 15 5 36 21 47 36 17
25 19 45 19 219 l0 191 -28 30 c-16 17 -40 32 -53 32 -51 3 -1214 4 -1233 1z"/>
<path d="M2182 568 c-35 -9 -72 -57 -72 -93 0 -62 73 -113 133 -92 120 40 62
218 -61 185z"/>
<path d="M2482 569 c-63 -13 -96 -72 -73 -131 22 -58 43 -62 281 -63 120 0
232 3 249 8 33 8 71 56 71 90 0 28 -28 75 -53 89 -24 13 -416 19 -475 7z"/>
</g>
</svg>
